<svg id="visual" viewBox="0 0 2000 1000" width="2000" height="1000" xmlns="http://www.w3.org/2000/svg" xmlns:xlink="http://www.w3.org/1999/xlink" version="1.1"><g stroke-width="3" stroke-linejoin="bevel"><path d="M1067.1 510L912.9 449L900.9 534Z" fill="#0c1817" stroke="#00474b"></path><path d="M900.9 534L977.9 714L1067.1 510Z" fill="#147274" stroke="#00474b"></path><path d="M912.9 449L751.7 503L900.9 534Z" fill="#020908" stroke="#00474b"></path><path d="M900.9 534L713.7 816L977.9 714Z" fill="#008e95" stroke="#00474b"></path><path d="M1239.3 541L1199.1 392L1067.1 510Z" fill="#142f2e" stroke="#00474b"></path><path d="M1067.1 510L1199.1 392L912.9 449Z" fill="#185656" stroke="#00474b"></path><path d="M1047.1 785L1239.3 541L1067.1 510Z" fill="#0c1817" stroke="#00474b"></path><path d="M734.7 279L722.7 397L912.9 449Z" fill="#0d8084" stroke="#00474b"></path><path d="M912.9 449L722.7 397L751.7 503Z" fill="#020908" stroke="#00474b"></path><path d="M902.9 1000L1047.1 785L977.9 714Z" fill="#176465" stroke="#00474b"></path><path d="M977.9 714L1047.1 785L1067.1 510Z" fill="#184948" stroke="#00474b"></path><path d="M1147.1 220L866.9 206L912.9 449Z" fill="#0d8084" stroke="#00474b"></path><path d="M1239.3 541L1298.3 434L1199.1 392Z" fill="#142f2e" stroke="#00474b"></path><path d="M1199.1 392L1147.1 220L912.9 449Z" fill="#185656" stroke="#00474b"></path><path d="M1302.3 156L1147.1 220L1199.1 392Z" fill="#142f2e" stroke="#00474b"></path><path d="M866.9 206L734.7 279L912.9 449Z" fill="#0d8084" stroke="#00474b"></path><path d="M467.4 667L713.7 816L751.7 503Z" fill="#0c1817" stroke="#00474b"></path><path d="M751.7 503L713.7 816L900.9 534Z" fill="#176465" stroke="#00474b"></path><path d="M1107.1 1000L1264.3 835L1047.1 785Z" fill="#176465" stroke="#00474b"></path><path d="M1047.1 785L1264.3 835L1239.3 541Z" fill="#185656" stroke="#00474b"></path><path d="M1512.6 662L1501.6 434L1298.3 434Z" fill="#173c3b" stroke="#00474b"></path><path d="M734.7 279L534.4 441L722.7 397Z" fill="#185656" stroke="#00474b"></path><path d="M722.7 397L534.4 441L751.7 503Z" fill="#176465" stroke="#00474b"></path><path d="M1298.3 434L1302.3 156L1199.1 392Z" fill="#0d8084" stroke="#00474b"></path><path d="M1147.1 220L1078.1 0L866.9 206Z" fill="#142f2e" stroke="#00474b"></path><path d="M713.7 816L902.9 1000L977.9 714Z" fill="#184948" stroke="#00474b"></path><path d="M1302.3 156L1078.1 0L1147.1 220Z" fill="#008e95" stroke="#00474b"></path><path d="M866.9 206L590.7 0L734.7 279Z" fill="#173c3b" stroke="#00474b"></path><path d="M734.7 279L458.4 201L534.4 441Z" fill="#008e95" stroke="#00474b"></path><path d="M902.9 1000L1107.1 1000L1047.1 785Z" fill="#142f2e" stroke="#00474b"></path><path d="M1078.1 0L861.9 0L866.9 206Z" fill="#008e95" stroke="#00474b"></path><path d="M1512.6 662L1298.3 434L1239.3 541Z" fill="#185656" stroke="#00474b"></path><path d="M1298.3 434L1542.6 226L1302.3 156Z" fill="#0c1817" stroke="#00474b"></path><path d="M534.4 441L467.4 667L751.7 503Z" fill="#0c1817" stroke="#00474b"></path><path d="M713.7 816L688.7 1000L902.9 1000Z" fill="#0d8084" stroke="#00474b"></path><path d="M1574.6 898L1512.6 662L1264.3 835Z" fill="#0c1817" stroke="#00474b"></path><path d="M1264.3 835L1512.6 662L1239.3 541Z" fill="#173c3b" stroke="#00474b"></path><path d="M1107.1 1000L1249.3 1000L1264.3 835Z" fill="#185656" stroke="#00474b"></path><path d="M471.4 1000L688.7 1000L713.7 816Z" fill="#147274" stroke="#00474b"></path><path d="M590.7 0L458.4 201L734.7 279Z" fill="#020908" stroke="#00474b"></path><path d="M534.4 441L275.2 487L467.4 667Z" fill="#0d8084" stroke="#00474b"></path><path d="M1711.8 473L1542.6 226L1501.6 434Z" fill="#020908" stroke="#00474b"></path><path d="M1501.6 434L1542.6 226L1298.3 434Z" fill="#0d8084" stroke="#00474b"></path><path d="M1302.3 156L1368.3 0L1078.1 0Z" fill="#0d8084" stroke="#00474b"></path><path d="M1542.6 226L1368.3 0L1302.3 156Z" fill="#008e95" stroke="#00474b"></path><path d="M861.9 0L590.7 0L866.9 206Z" fill="#020908" stroke="#00474b"></path><path d="M183.2 724L370.4 817L467.4 667Z" fill="#112322" stroke="#00474b"></path><path d="M467.4 667L370.4 817L713.7 816Z" fill="#147274" stroke="#00474b"></path><path d="M458.4 201L275.2 487L534.4 441Z" fill="#0c1817" stroke="#00474b"></path><path d="M370.4 817L471.4 1000L713.7 816Z" fill="#147274" stroke="#00474b"></path><path d="M1249.3 1000L1574.6 898L1264.3 835Z" fill="#176465" stroke="#00474b"></path><path d="M1512.6 662L1711.8 473L1501.6 434Z" fill="#112322" stroke="#00474b"></path><path d="M1754.8 595L1711.8 473L1512.6 662Z" fill="#0c1817" stroke="#00474b"></path><path d="M1249.3 1000L1571.6 1000L1574.6 898Z" fill="#0c1817" stroke="#00474b"></path><path d="M1574.6 898L1754.8 595L1512.6 662Z" fill="#0c1817" stroke="#00474b"></path><path d="M1829.8 816L1754.8 595L1574.6 898Z" fill="#173c3b" stroke="#00474b"></path><path d="M590.7 0L344.4 0L458.4 201Z" fill="#142f2e" stroke="#00474b"></path><path d="M458.4 201L178.2 100L275.2 487Z" fill="#185656" stroke="#00474b"></path><path d="M275.2 487L168.2 588L467.4 667Z" fill="#176465" stroke="#00474b"></path><path d="M370.4 817L213.2 1000L471.4 1000Z" fill="#008e95" stroke="#00474b"></path><path d="M0 595L168.2 588L0 326Z" fill="#112322" stroke="#00474b"></path><path d="M168.2 588L183.2 724L467.4 667Z" fill="#0d8084" stroke="#00474b"></path><path d="M2000 254L1727.8 141L1711.8 473Z" fill="#185656" stroke="#00474b"></path><path d="M1711.8 473L1727.8 141L1542.6 226Z" fill="#0c1817" stroke="#00474b"></path><path d="M1542.6 226L1647.6 0L1368.3 0Z" fill="#112322" stroke="#00474b"></path><path d="M1727.8 141L1647.6 0L1542.6 226Z" fill="#185656" stroke="#00474b"></path><path d="M344.4 0L178.2 100L458.4 201Z" fill="#176465" stroke="#00474b"></path><path d="M265.2 0L178.2 100L344.4 0Z" fill="#020908" stroke="#00474b"></path><path d="M1753.8 1000L1829.8 816L1574.6 898Z" fill="#147274" stroke="#00474b"></path><path d="M2000 254L1792.8 0L1727.8 141Z" fill="#147274" stroke="#00474b"></path><path d="M0 1000L213.2 1000L183.2 724Z" fill="#142f2e" stroke="#00474b"></path><path d="M183.2 724L213.2 1000L370.4 817Z" fill="#176465" stroke="#00474b"></path><path d="M1571.6 1000L1753.8 1000L1574.6 898Z" fill="#147274" stroke="#00474b"></path><path d="M2000 499L1711.8 473L1754.8 595Z" fill="#142f2e" stroke="#00474b"></path><path d="M1727.8 141L1792.8 0L1647.6 0Z" fill="#185656" stroke="#00474b"></path><path d="M0 326L168.2 588L275.2 487Z" fill="#147274" stroke="#00474b"></path><path d="M168.2 588L0 733L183.2 724Z" fill="#142f2e" stroke="#00474b"></path><path d="M178.2 100L0 326L275.2 487Z" fill="#147274" stroke="#00474b"></path><path d="M0 595L0 733L168.2 588Z" fill="#008e95" stroke="#00474b"></path><path d="M2000 685L2000 499L1754.8 595Z" fill="#142f2e" stroke="#00474b"></path><path d="M2000 685L1754.8 595L1829.8 816Z" fill="#176465" stroke="#00474b"></path><path d="M2000 760L2000 685L1829.8 816Z" fill="#147274" stroke="#00474b"></path><path d="M0 0L0 162L178.2 100Z" fill="#173c3b" stroke="#00474b"></path><path d="M178.2 100L0 162L0 326Z" fill="#147274" stroke="#00474b"></path><path d="M2000 499L2000 254L1711.8 473Z" fill="#020908" stroke="#00474b"></path><path d="M2000 1000L2000 760L1829.8 816Z" fill="#173c3b" stroke="#00474b"></path><path d="M0 733L0 1000L183.2 724Z" fill="#008e95" stroke="#00474b"></path><path d="M265.2 0L0 0L178.2 100Z" fill="#112322" stroke="#00474b"></path><path d="M1753.8 1000L2000 1000L1829.8 816Z" fill="#147274" stroke="#00474b"></path><path d="M2000 254L2000 0L1792.8 0Z" fill="#184948" stroke="#00474b"></path></g></svg>